<?xml version="1.0" encoding="utf-8"?>
<!-- Generated by IcoMoon.io -->
<!DOCTYPE svg PUBLIC "-//W3C//DTD SVG 1.1//EN" "http://www.w3.org/Graphics/SVG/1.1/DTD/svg11.dtd">
<svg version="1.1" xmlns="http://www.w3.org/2000/svg" xmlns:xlink="http://www.w3.org/1999/xlink" width="50" height="38" viewBox="0 0 50 38">
<path d="M50.408 38h-50.408v-38h50.408v38zM5.971 34.471h38.465l-12.68-12.951-2.404 2.404c-1.047 1.047-2.52 1.629-4.071 1.629 0 0 0 0-0.039 0-1.551 0-3.063-0.62-4.071-1.667l-2.443-2.482-12.757 13.067zM3.529 6.049v25.941l12.757-13.029-12.757-12.912zM34.278 19.039l12.641 12.912v-25.631l-12.641 12.718zM5.971 3.529l17.72 17.914c0.388 0.388 0.969 0.62 1.59 0.62 0 0 0 0 0 0 0.62 0 1.202-0.233 1.59-0.582l17.837-17.953h-38.737z" fill="#b2b2b2"></path>
</svg>
